<svg version="1.2" xmlns="http://www.w3.org/2000/svg" viewBox="0 0 294 87" width="294" height="87">
	<title>explain-logo-dark</title>
	<style>
		.s0 { fill: #f5f5f5 } 
		.s1 { fill: #00d1ff } 
	</style>
	<path class="s0" d="m45.6 39.4q0 2.4-0.4 4.2h-36.9q0.3 7.9 4.5 11.8 4.3 4 10.4 4 5.6 0 9.2-2.8 3.8-2.9 4.7-7.6h8.1q-0.8 4.8-3.8 8.6-2.8 3.8-7.4 5.9-4.7 2.1-10.5 2.1-6.6 0-11.7-2.9-5.1-2.8-8.1-8.1-2.8-5.4-2.8-12.6 0-7.2 2.8-12.6 3-5.4 8.1-8.2 5.1-2.9 11.7-2.9 6.8 0 11.7 2.9 5.1 2.8 7.7 7.6 2.7 4.8 2.7 10.6zm-7.8 0.5q0.3-5.1-1.7-8.6-1.9-3.4-5.2-5.1-3.4-1.7-7.4-1.7-6.3 0-10.5 4-4.3 3.8-4.7 11.4zm44.3 25.1l-12-17.6-10.8 17.6h-8.5l15.1-23.8-15.2-22.3h8.7l11.7 17.1 10.7-17.1h8.5l-15.1 23.2 15.6 22.9zm41.4-46.7q6.1 0 10.9 2.9 4.8 2.8 7.5 8.2 2.7 5.4 2.7 12.6 0 7.2-2.7 12.6-2.7 5.3-7.5 8.1-4.8 2.9-10.9 2.9-6.8 0-11.5-3.4-4.6-3.4-6.3-9v33.6h-7.7v-67.9h7.7v11.7q1.7-5.5 6.3-8.9 4.7-3.4 11.5-3.4zm-2.2 6.8q-4.5 0-8.1 2.1-3.6 2-5.6 5.9-2 3.8-2 8.9 0 5 2 8.9 2 3.8 5.6 5.9 3.6 2.1 8.1 2.1 7.1 0 11.3-4.5 4.3-4.5 4.3-12.4 0-7.9-4.3-12.4-4.2-4.5-11.3-4.5zm41-22.3v62.2h-7.7v-62.2zm113.1 15.3q8.1 0 13 5.2 5 5.2 5 14.9v26.8h-7.7v-26.1q0-6.9-3.5-10.6-3.5-3.7-9.6-3.7-6.3 0-10 4.1-3.8 4-3.8 11.9v24.4h-7.7v-46.1h7.7v10.9q1.7-5.6 6.2-8.6 4.5-3.1 10.4-3.1z"/>
	<path class="s1" d="m193.4 18.3q6.7 0 11.3 3.4 4.7 3.3 6.6 8.9v-11.7h7.6v46.1h-7.6v-11.8q-1.9 5.7-6.6 9-4.6 3.4-11.3 3.4-6.1 0-10.9-2.9-4.8-2.8-7.6-8.1-2.7-5.4-2.7-12.6 0-7.2 2.7-12.6 2.8-5.4 7.6-8.2 4.8-2.9 10.9-2.9zm2.2 6.8q-7.1 0-11.4 4.5-4.2 4.5-4.2 12.4 0 7.9 4.2 12.4 4.3 4.5 11.4 4.5 4.5 0 8-2.1 3.7-2.1 5.7-5.9 2-3.9 2-8.9 0-5.1-2-8.9-2-3.9-5.7-5.9-3.5-2.1-8-2.1zm34.2-19.7q0-2.1 1.4-3.4 1.4-1.3 3.8-1.3 2.3 0 3.7 1.3 1.5 1.3 1.5 3.4 0 2.1-1.5 3.4-1.4 1.3-3.7 1.3-2.4 0-3.8-1.3-1.4-1.3-1.4-3.4zm8.9 13.5v46.1h-7.6v-46.1z"/>
</svg>