<svg width="294" height="87" viewBox="0 0 294 87" fill="none" xmlns="http://www.w3.org/2000/svg">
<path d="M45.552 39.38C45.552 41.004 45.44 42.404 45.216 43.58H8.34C8.508 48.844 9.992 52.792 12.792 55.424C15.648 58.056 19.12 59.372 23.208 59.372C26.904 59.372 29.984 58.448 32.448 56.6C34.968 54.696 36.508 52.176 37.068 49.04H45.216C44.656 52.232 43.396 55.088 41.436 57.608C39.532 60.128 37.04 62.088 33.96 63.488C30.88 64.888 27.408 65.588 23.544 65.588C19.12 65.588 15.2 64.636 11.784 62.732C8.368 60.828 5.68 58.112 3.72 54.584C1.816 51 0.864 46.8 0.864 41.984C0.864 37.168 1.816 32.968 3.72 29.384C5.68 25.8 8.368 23.056 11.784 21.152C15.2 19.248 19.12 18.296 23.544 18.296C28.024 18.296 31.916 19.248 35.22 21.152C38.58 23.056 41.128 25.604 42.864 28.796C44.656 31.988 45.552 35.516 45.552 39.38ZM37.824 39.884C37.992 36.468 37.432 33.612 36.144 31.316C34.856 29.02 33.092 27.312 30.852 26.192C28.612 25.072 26.176 24.512 23.544 24.512C19.344 24.512 15.816 25.828 12.96 28.46C10.104 31.036 8.564 34.844 8.34 39.884H37.824ZM82.094 65L70.082 47.36L59.246 65H50.762L65.882 41.228L50.678 18.884H59.414L71.09 36.02L81.758 18.884H90.242L75.206 42.068L90.83 65H82.094ZM123.412 18.296C127.5 18.296 131.14 19.248 134.332 21.152C137.524 23.056 140.016 25.8 141.808 29.384C143.656 32.968 144.58 37.168 144.58 41.984C144.58 46.8 143.656 51 141.808 54.584C140.016 58.112 137.524 60.828 134.332 62.732C131.14 64.636 127.5 65.588 123.412 65.588C118.932 65.588 115.124 64.468 111.988 62.228C108.908 59.932 106.78 56.936 105.604 53.24V86.84H97.9601V18.884H105.604V30.644C106.78 26.948 108.908 23.98 111.988 21.74C115.124 19.444 118.932 18.296 123.412 18.296ZM121.228 25.1C118.26 25.1 115.572 25.8 113.164 27.2C110.756 28.544 108.88 30.504 107.536 33.08C106.192 35.656 105.52 38.624 105.52 41.984C105.52 45.344 106.192 48.312 107.536 50.888C108.88 53.408 110.756 55.368 113.164 56.768C115.572 58.168 118.26 58.868 121.228 58.868C125.988 58.868 129.768 57.384 132.568 54.416C135.424 51.392 136.852 47.248 136.852 41.984C136.852 36.72 135.424 32.604 132.568 29.636C129.768 26.612 125.988 25.1 121.228 25.1ZM162.206 2.84V65H154.562V2.84H162.206ZM275.306 18.128C280.682 18.128 285.022 19.864 288.326 23.336C291.63 26.752 293.282 31.708 293.282 38.204V65H285.638V38.876C285.638 34.284 284.462 30.756 282.11 28.292C279.758 25.828 276.566 24.596 272.534 24.596C268.334 24.596 264.974 25.968 262.454 28.712C259.934 31.4 258.674 35.348 258.674 40.556V65H251.03V18.884H258.674V29.804C259.85 26.052 261.922 23.168 264.89 21.152C267.914 19.136 271.386 18.128 275.306 18.128Z" fill="black"/>
<path d="M193.395 18.296C197.875 18.296 201.655 19.416 204.735 21.656C207.871 23.896 210.055 26.892 211.287 30.644V18.884H218.931V65H211.287V53.24C210.055 56.992 207.871 59.988 204.735 62.228C201.655 64.468 197.875 65.588 193.395 65.588C189.307 65.588 185.667 64.636 182.475 62.732C179.283 60.828 176.763 58.112 174.915 54.584C173.123 51 172.227 46.8 172.227 41.984C172.227 37.168 173.123 32.968 174.915 29.384C176.763 25.8 179.283 23.056 182.475 21.152C185.667 19.248 189.307 18.296 193.395 18.296ZM195.579 25.1C190.875 25.1 187.095 26.612 184.239 29.636C181.439 32.604 180.039 36.72 180.039 41.984C180.039 47.248 181.439 51.392 184.239 54.416C187.095 57.384 190.875 58.868 195.579 58.868C198.603 58.868 201.291 58.168 203.643 56.768C206.051 55.368 207.927 53.408 209.271 50.888C210.615 48.312 211.287 45.344 211.287 41.984C211.287 38.624 210.615 35.656 209.271 33.08C207.927 30.504 206.051 28.544 203.643 27.2C201.291 25.8 198.603 25.1 195.579 25.1ZM229.753 5.36C229.753 3.96 230.229 2.84 231.181 1.99999C232.133 1.104 233.393 0.655997 234.961 0.655997C236.529 0.655997 237.789 1.104 238.741 1.99999C239.693 2.84 240.169 3.96 240.169 5.36C240.169 6.76 239.693 7.908 238.741 8.804C237.789 9.644 236.529 10.064 234.961 10.064C233.393 10.064 232.133 9.644 231.181 8.804C230.229 7.908 229.753 6.76 229.753 5.36ZM238.741 18.884V65H231.097V18.884H238.741Z" fill="#00D1FF"/>
</svg>
